<?xml version="1.0" encoding="UTF-8" standalone="no"?>
<!DOCTYPE svg PUBLIC "-//W3C//DTD SVG 1.1//EN"
 "http://www.w3.org/Graphics/SVG/1.1/DTD/svg11.dtd">
<!-- Generated by graphviz version 2.38.0 (20140413.2041)
 -->
<!-- Title: snakemake_dag Pages: 1 -->
<svg width="670pt" height="1340pt"
 viewBox="0.00 0.00 670.00 1340.00" xmlns="http://www.w3.org/2000/svg" xmlns:xlink="http://www.w3.org/1999/xlink">
<g id="graph0" class="graph" transform="scale(1 1) rotate(0) translate(4 1336)">
<title>snakemake_dag</title>
<polygon fill="white" stroke="none" points="-4,4 -4,-1336 666,-1336 666,4 -4,4"/>
<!-- 0 -->
<g id="node1" class="node"><title>0</title>
<path fill="none" stroke="#afd856" stroke-width="2" d="M334,-36C334,-36 304,-36 304,-36 298,-36 292,-30 292,-24 292,-24 292,-12 292,-12 292,-6 298,-0 304,-0 304,-0 334,-0 334,-0 340,-0 346,-6 346,-12 346,-12 346,-24 346,-24 346,-30 340,-36 334,-36"/>
<text text-anchor="middle" x="319" y="-15.5" font-family="sans" font-size="10.00">all</text>
</g>
<!-- 1 -->
<g id="node2" class="node"><title>1</title>
<path fill="none" stroke="#bed856" stroke-width="2" d="M150,-1332C150,-1332 84,-1332 84,-1332 78,-1332 72,-1326 72,-1320 72,-1320 72,-1308 72,-1308 72,-1302 78,-1296 84,-1296 84,-1296 150,-1296 150,-1296 156,-1296 162,-1302 162,-1308 162,-1308 162,-1320 162,-1320 162,-1326 156,-1332 150,-1332"/>
<text text-anchor="middle" x="117" y="-1311.5" font-family="sans" font-size="10.00">trim_galore_pe</text>
</g>
<!-- 1&#45;&gt;0 -->
<g id="edge14" class="edge"><title>1&#45;&gt;0</title>
<path fill="none" stroke="grey" stroke-width="2" d="M88.9756,-1295.94C54.3622,-1272.47 0,-1226.74 0,-1171 0,-1171 0,-1171 0,-161 0,-38.9171 197.411,-21.0354 281.64,-18.962"/>
<polygon fill="grey" stroke="grey" stroke-width="2" points="281.868,-22.4585 291.802,-18.7758 281.74,-15.4597 281.868,-22.4585"/>
</g>
<!-- 2 -->
<g id="node3" class="node"><title>2</title>
<path fill="none" stroke="#d6d856" stroke-width="2" d="M95.5,-1044C95.5,-1044 40.5,-1044 40.5,-1044 34.5,-1044 28.5,-1038 28.5,-1032 28.5,-1032 28.5,-1020 28.5,-1020 28.5,-1014 34.5,-1008 40.5,-1008 40.5,-1008 95.5,-1008 95.5,-1008 101.5,-1008 107.5,-1014 107.5,-1020 107.5,-1020 107.5,-1032 107.5,-1032 107.5,-1038 101.5,-1044 95.5,-1044"/>
<text text-anchor="middle" x="68" y="-1023.5" font-family="sans" font-size="10.00">fastq_screen</text>
</g>
<!-- 1&#45;&gt;2 -->
<g id="edge16" class="edge"><title>1&#45;&gt;2</title>
<path fill="none" stroke="grey" stroke-width="2" d="M114.082,-1295.97C105.896,-1248.19 82.6696,-1112.62 72.6714,-1054.27"/>
<polygon fill="grey" stroke="grey" stroke-width="2" points="76.1036,-1053.57 70.9651,-1044.31 69.2041,-1054.75 76.1036,-1053.57"/>
</g>
<!-- 3 -->
<g id="node4" class="node"><title>3</title>
<path fill="none" stroke="#d87d56" stroke-width="2" d="M145,-972C145,-972 115,-972 115,-972 109,-972 103,-966 103,-960 103,-960 103,-948 103,-948 103,-942 109,-936 115,-936 115,-936 145,-936 145,-936 151,-936 157,-942 157,-948 157,-948 157,-960 157,-960 157,-966 151,-972 145,-972"/>
<text text-anchor="middle" x="130" y="-951.5" font-family="sans" font-size="10.00">fastqc</text>
</g>
<!-- 1&#45;&gt;3 -->
<g id="edge17" class="edge"><title>1&#45;&gt;3</title>
<path fill="none" stroke="grey" stroke-width="2" d="M120.845,-1295.61C126.397,-1268.94 136,-1216.27 136,-1171 136,-1171 136,-1171 136,-1097 136,-1056.96 133.589,-1010.63 131.824,-982.065"/>
<polygon fill="grey" stroke="grey" stroke-width="2" points="135.314,-981.797 131.185,-972.039 128.328,-982.242 135.314,-981.797"/>
</g>
<!-- 20 -->
<g id="node21" class="node"><title>20</title>
<path fill="none" stroke="#56a2d8" stroke-width="2" d="M229,-1260C229,-1260 197,-1260 197,-1260 191,-1260 185,-1254 185,-1248 185,-1248 185,-1236 185,-1236 185,-1230 191,-1224 197,-1224 197,-1224 229,-1224 229,-1224 235,-1224 241,-1230 241,-1236 241,-1236 241,-1248 241,-1248 241,-1254 235,-1260 229,-1260"/>
<text text-anchor="middle" x="213" y="-1239.5" font-family="sans" font-size="10.00">bowtie2</text>
</g>
<!-- 1&#45;&gt;20 -->
<g id="edge37" class="edge"><title>1&#45;&gt;20</title>
<path fill="none" stroke="grey" stroke-width="2" d="M140.73,-1295.7C152.937,-1286.8 167.985,-1275.82 181.184,-1266.2"/>
<polygon fill="grey" stroke="grey" stroke-width="2" points="183.525,-1268.82 189.543,-1260.1 179.4,-1263.17 183.525,-1268.82"/>
</g>
<!-- 2&#45;&gt;0 -->
<g id="edge12" class="edge"><title>2&#45;&gt;0</title>
<path fill="none" stroke="grey" stroke-width="2" d="M68,-1007.95C68,-981.292 68,-928.115 68,-883 68,-883 68,-883 68,-161 68,-116.473 79.1927,-99.7681 114,-72 162.818,-33.055 237.119,-22.4584 281.585,-19.7363"/>
<polygon fill="grey" stroke="grey" stroke-width="2" points="281.866,-23.2266 291.675,-19.2229 281.51,-16.2356 281.866,-23.2266"/>
</g>
<!-- 3&#45;&gt;0 -->
<g id="edge3" class="edge"><title>3&#45;&gt;0</title>
<path fill="none" stroke="grey" stroke-width="2" d="M125.143,-935.671C118.13,-909.079 106,-856.504 106,-811 106,-811 106,-811 106,-161 106,-116.874 116.473,-100.688 150,-72 187.586,-39.8387 244.672,-27.1687 281.907,-22.1934"/>
<polygon fill="grey" stroke="grey" stroke-width="2" points="282.346,-25.666 291.85,-20.9844 281.501,-18.7172 282.346,-25.666"/>
</g>
<!-- 4 -->
<g id="node5" class="node"><title>4</title>
<path fill="none" stroke="#d8cb56" stroke-width="2" d="M246,-900C246,-900 148,-900 148,-900 142,-900 136,-894 136,-888 136,-888 136,-876 136,-876 136,-870 142,-864 148,-864 148,-864 246,-864 246,-864 252,-864 258,-870 258,-876 258,-876 258,-888 258,-888 258,-894 252,-900 246,-900"/>
<text text-anchor="middle" x="197" y="-879.5" font-family="sans" font-size="10.00">fragment_length_plot</text>
</g>
<!-- 4&#45;&gt;0 -->
<g id="edge9" class="edge"><title>4&#45;&gt;0</title>
<path fill="none" stroke="grey" stroke-width="2" d="M186.018,-863.841C170.494,-837.892 144,-786.628 144,-739 144,-739 144,-739 144,-161 144,-117.99 151.069,-101.885 182,-72 209.398,-45.5285 251.472,-31.9038 281.764,-25.1468"/>
<polygon fill="grey" stroke="grey" stroke-width="2" points="282.864,-28.4931 291.944,-23.0333 281.441,-21.6392 282.864,-28.4931"/>
</g>
<!-- 5 -->
<g id="node6" class="node"><title>5</title>
<path fill="none" stroke="#56d8c1" stroke-width="2" d="M399.5,-756C399.5,-756 318.5,-756 318.5,-756 312.5,-756 306.5,-750 306.5,-744 306.5,-744 306.5,-732 306.5,-732 306.5,-726 312.5,-720 318.5,-720 318.5,-720 399.5,-720 399.5,-720 405.5,-720 411.5,-726 411.5,-732 411.5,-732 411.5,-744 411.5,-744 411.5,-750 405.5,-756 399.5,-756"/>
<text text-anchor="middle" x="359" y="-735.5" font-family="sans" font-size="10.00">quality_alignment</text>
</g>
<!-- 5&#45;&gt;0 -->
<g id="edge11" class="edge"><title>5&#45;&gt;0</title>
<path fill="none" stroke="grey" stroke-width="2" d="M411.779,-735.384C498.59,-729.603 662,-704.217 662,-595 662,-595 662,-595 662,-161 662,-114.962 646.808,-98.2689 609,-72 568.604,-43.933 425.377,-28.1342 356.514,-22.0038"/>
<polygon fill="grey" stroke="grey" stroke-width="2" points="356.392,-18.4802 346.127,-21.1026 355.787,-25.454 356.392,-18.4802"/>
</g>
<!-- 6 -->
<g id="node7" class="node"><title>6</title>
<path fill="none" stroke="#d8b456" stroke-width="2" d="M387,-684C387,-684 331,-684 331,-684 325,-684 319,-678 319,-672 319,-672 319,-660 319,-660 319,-654 325,-648 331,-648 331,-648 387,-648 387,-648 393,-648 399,-654 399,-660 399,-660 399,-672 399,-672 399,-678 393,-684 387,-684"/>
<text text-anchor="middle" x="359" y="-663.5" font-family="sans" font-size="10.00">merge_bams</text>
</g>
<!-- 5&#45;&gt;6 -->
<g id="edge20" class="edge"><title>5&#45;&gt;6</title>
<path fill="none" stroke="grey" stroke-width="2" d="M359,-719.697C359,-711.983 359,-702.712 359,-694.112"/>
<polygon fill="grey" stroke="grey" stroke-width="2" points="362.5,-694.104 359,-684.104 355.5,-694.104 362.5,-694.104"/>
</g>
<!-- 6&#45;&gt;0 -->
<g id="edge8" class="edge"><title>6&#45;&gt;0</title>
<path fill="none" stroke="grey" stroke-width="2" d="M339.085,-647.804C329.344,-638.258 318.371,-625.584 312,-612 298.255,-582.692 305.671,-572.033 301,-540 277.809,-380.97 273.679,-340.573 267,-180 265.004,-132.023 251.57,-116.341 270,-72 274.419,-61.3686 281.977,-51.5418 289.852,-43.3114"/>
<polygon fill="grey" stroke="grey" stroke-width="2" points="292.395,-45.7205 297.093,-36.2243 287.498,-40.7181 292.395,-45.7205"/>
</g>
<!-- 7 -->
<g id="node8" class="node"><title>7</title>
<path fill="none" stroke="#d85656" stroke-width="2" d="M214,-540C214,-540 184,-540 184,-540 178,-540 172,-534 172,-528 172,-528 172,-516 172,-516 172,-510 178,-504 184,-504 184,-504 214,-504 214,-504 220,-504 226,-510 226,-516 226,-516 226,-528 226,-528 226,-534 220,-540 214,-540"/>
<text text-anchor="middle" x="199" y="-519.5" font-family="sans" font-size="10.00">bigwig</text>
</g>
<!-- 6&#45;&gt;7 -->
<g id="edge21" class="edge"><title>6&#45;&gt;7</title>
<path fill="none" stroke="grey" stroke-width="2" d="M318.937,-655.049C293.631,-647.018 261.726,-633.452 240,-612 222.761,-594.978 212.014,-569.354 205.871,-549.965"/>
<polygon fill="grey" stroke="grey" stroke-width="2" points="209.178,-548.804 202.994,-540.201 202.463,-550.783 209.178,-548.804"/>
</g>
<!-- 12 -->
<g id="node13" class="node"><title>12</title>
<path fill="none" stroke="#88d856" stroke-width="2" d="M415,-252C415,-252 345,-252 345,-252 339,-252 333,-246 333,-240 333,-240 333,-228 333,-228 333,-222 339,-216 345,-216 345,-216 415,-216 415,-216 421,-216 427,-222 427,-228 427,-228 427,-240 427,-240 427,-246 421,-252 415,-252"/>
<text text-anchor="middle" x="380" y="-231.5" font-family="sans" font-size="10.00">footprint_tracks</text>
</g>
<!-- 6&#45;&gt;12 -->
<g id="edge27" class="edge"><title>6&#45;&gt;12</title>
<path fill="none" stroke="grey" stroke-width="2" d="M359.593,-647.953C360.467,-621.297 362,-568.125 362,-523 362,-523 362,-523 362,-377 362,-336.896 369.153,-290.924 374.441,-262.419"/>
<polygon fill="grey" stroke="grey" stroke-width="2" points="377.917,-262.878 376.357,-252.399 371.041,-261.563 377.917,-262.878"/>
</g>
<!-- 13 -->
<g id="node14" class="node"><title>13</title>
<path fill="none" stroke="#56c9d8" stroke-width="2" d="M334,-180C334,-180 288,-180 288,-180 282,-180 276,-174 276,-168 276,-168 276,-156 276,-156 276,-150 282,-144 288,-144 288,-144 334,-144 334,-144 340,-144 346,-150 346,-156 346,-156 346,-168 346,-168 346,-174 340,-180 334,-180"/>
<text text-anchor="middle" x="311" y="-159.5" font-family="sans" font-size="10.00">differential</text>
</g>
<!-- 6&#45;&gt;13 -->
<g id="edge28" class="edge"><title>6&#45;&gt;13</title>
<path fill="none" stroke="grey" stroke-width="2" d="M347.811,-647.87C331.994,-621.957 305,-570.739 305,-523 305,-523 305,-523 305,-305 305,-264.96 307.411,-218.627 309.176,-190.065"/>
<polygon fill="grey" stroke="grey" stroke-width="2" points="312.672,-190.242 309.815,-180.039 305.686,-189.797 312.672,-190.242"/>
</g>
<!-- 18 -->
<g id="node19" class="node"><title>18</title>
<path fill="none" stroke="#56d863" stroke-width="2" d="M523,-612C523,-612 479,-612 479,-612 473,-612 467,-606 467,-600 467,-600 467,-588 467,-588 467,-582 473,-576 479,-576 479,-576 523,-576 523,-576 529,-576 535,-582 535,-588 535,-588 535,-600 535,-600 535,-606 529,-612 523,-612"/>
<text text-anchor="middle" x="501" y="-591.5" font-family="sans" font-size="10.00">call_peaks</text>
</g>
<!-- 6&#45;&gt;18 -->
<g id="edge34" class="edge"><title>6&#45;&gt;18</title>
<path fill="none" stroke="grey" stroke-width="2" d="M393.737,-647.876C412.962,-638.399 437.035,-626.532 457.502,-616.443"/>
<polygon fill="grey" stroke="grey" stroke-width="2" points="459.2,-619.508 466.622,-611.947 456.105,-613.229 459.2,-619.508"/>
</g>
<!-- 19 -->
<g id="node20" class="node"><title>19</title>
<path fill="none" stroke="#d88d56" stroke-width="2" d="M479,-324C479,-324 429,-324 429,-324 423,-324 417,-318 417,-312 417,-312 417,-300 417,-300 417,-294 423,-288 429,-288 429,-288 479,-288 479,-288 485,-288 491,-294 491,-300 491,-300 491,-312 491,-312 491,-318 485,-324 479,-324"/>
<text text-anchor="middle" x="454" y="-303.5" font-family="sans" font-size="10.00">footprinting</text>
</g>
<!-- 6&#45;&gt;19 -->
<g id="edge36" class="edge"><title>6&#45;&gt;19</title>
<path fill="none" stroke="grey" stroke-width="2" d="M373.421,-647.894C393.382,-622.416 427,-572.201 427,-523 427,-523 427,-523 427,-449 427,-408.502 437.73,-362.632 445.662,-334.258"/>
<polygon fill="grey" stroke="grey" stroke-width="2" points="449.129,-334.865 448.536,-324.287 442.403,-332.926 449.129,-334.865"/>
</g>
<!-- 7&#45;&gt;0 -->
<g id="edge1" class="edge"><title>7&#45;&gt;0</title>
<path fill="none" stroke="grey" stroke-width="2" d="M195.56,-503.592C190.592,-476.896 182,-424.188 182,-379 182,-379 182,-379 182,-161 182,-120.031 179.676,-103.392 206,-72 225.335,-48.943 256.944,-35.3052 281.821,-27.6523"/>
<polygon fill="grey" stroke="grey" stroke-width="2" points="283.027,-30.9474 291.671,-24.8209 281.093,-24.2199 283.027,-30.9474"/>
</g>
<!-- 8 -->
<g id="node9" class="node"><title>8</title>
<path fill="none" stroke="#97d856" stroke-width="2" d="M563,-540C563,-540 513,-540 513,-540 507,-540 501,-534 501,-528 501,-528 501,-516 501,-516 501,-510 507,-504 513,-504 513,-504 563,-504 563,-504 569,-504 575,-510 575,-516 575,-516 575,-528 575,-528 575,-534 569,-540 563,-540"/>
<text text-anchor="middle" x="538" y="-519.5" font-family="sans" font-size="10.00">filter_peaks</text>
</g>
<!-- 8&#45;&gt;0 -->
<g id="edge4" class="edge"><title>8&#45;&gt;0</title>
<path fill="none" stroke="grey" stroke-width="2" d="M568.051,-503.896C581.313,-494.866 595.921,-482.613 605,-468 626.345,-433.644 624,-419.447 624,-379 624,-379 624,-379 624,-161 624,-116.268 612.779,-98.849 577,-72 542.599,-46.1847 419.441,-29.6903 356.545,-22.758"/>
<polygon fill="grey" stroke="grey" stroke-width="2" points="356.581,-19.2417 346.263,-21.6509 355.831,-26.2014 356.581,-19.2417"/>
</g>
<!-- 9 -->
<g id="node10" class="node"><title>9</title>
<path fill="none" stroke="#56b9d8" stroke-width="2" d="M584,-468C584,-468 492,-468 492,-468 486,-468 480,-462 480,-456 480,-456 480,-444 480,-444 480,-438 486,-432 492,-432 492,-432 584,-432 584,-432 590,-432 596,-438 596,-444 596,-444 596,-456 596,-456 596,-462 590,-468 584,-468"/>
<text text-anchor="middle" x="538" y="-447.5" font-family="sans" font-size="10.00">consensus_intervals</text>
</g>
<!-- 8&#45;&gt;9 -->
<g id="edge23" class="edge"><title>8&#45;&gt;9</title>
<path fill="none" stroke="grey" stroke-width="2" d="M538,-503.697C538,-495.983 538,-486.712 538,-478.112"/>
<polygon fill="grey" stroke="grey" stroke-width="2" points="541.5,-478.104 538,-468.104 534.5,-478.104 541.5,-478.104"/>
</g>
<!-- 9&#45;&gt;0 -->
<g id="edge2" class="edge"><title>9&#45;&gt;0</title>
<path fill="none" stroke="grey" stroke-width="2" d="M547.946,-431.706C562.005,-405.584 586,-354.102 586,-307 586,-307 586,-307 586,-161 586,-117.813 580.222,-99.593 547,-72 518.232,-48.1063 412.985,-31.1749 356.094,-23.5446"/>
<polygon fill="grey" stroke="grey" stroke-width="2" points="356.433,-20.0593 346.063,-22.2286 355.523,-26.9998 356.433,-20.0593"/>
</g>
<!-- 22 -->
<g id="node23" class="node"><title>22</title>
<path fill="none" stroke="#56d88a" stroke-width="2" d="M528.5,-396C528.5,-396 475.5,-396 475.5,-396 469.5,-396 463.5,-390 463.5,-384 463.5,-384 463.5,-372 463.5,-372 463.5,-366 469.5,-360 475.5,-360 475.5,-360 528.5,-360 528.5,-360 534.5,-360 540.5,-366 540.5,-372 540.5,-372 540.5,-384 540.5,-384 540.5,-390 534.5,-396 528.5,-396"/>
<text text-anchor="middle" x="502" y="-375.5" font-family="sans" font-size="10.00">rm_blacklist</text>
</g>
<!-- 9&#45;&gt;22 -->
<g id="edge39" class="edge"><title>9&#45;&gt;22</title>
<path fill="none" stroke="grey" stroke-width="2" d="M529.101,-431.697C525.003,-423.728 520.051,-414.1 515.507,-405.264"/>
<polygon fill="grey" stroke="grey" stroke-width="2" points="518.483,-403.396 510.797,-396.104 512.258,-406.598 518.483,-403.396"/>
</g>
<!-- 10 -->
<g id="node11" class="node"><title>10</title>
<path fill="none" stroke="#566bd8" stroke-width="2" d="M502.5,-252C502.5,-252 457.5,-252 457.5,-252 451.5,-252 445.5,-246 445.5,-240 445.5,-240 445.5,-228 445.5,-228 445.5,-222 451.5,-216 457.5,-216 457.5,-216 502.5,-216 502.5,-216 508.5,-216 514.5,-222 514.5,-228 514.5,-228 514.5,-240 514.5,-240 514.5,-246 508.5,-252 502.5,-252"/>
<text text-anchor="middle" x="480" y="-231.5" font-family="sans" font-size="10.00">diff_motifs</text>
</g>
<!-- 10&#45;&gt;0 -->
<g id="edge15" class="edge"><title>10&#45;&gt;0</title>
<path fill="none" stroke="grey" stroke-width="2" d="M466.458,-215.708C458.693,-205.527 448.943,-192.277 441,-180 411.054,-133.716 414.869,-114.698 380,-72 371.388,-61.4538 360.538,-51.2863 350.385,-42.7263"/>
<polygon fill="grey" stroke="grey" stroke-width="2" points="352.403,-39.8553 342.448,-36.2294 347.969,-45.2719 352.403,-39.8553"/>
</g>
<!-- 11 -->
<g id="node12" class="node"><title>11</title>
<path fill="none" stroke="#56d8a9" stroke-width="2" d="M503.5,-180C503.5,-180 462.5,-180 462.5,-180 456.5,-180 450.5,-174 450.5,-168 450.5,-168 450.5,-156 450.5,-156 450.5,-150 456.5,-144 462.5,-144 462.5,-144 503.5,-144 503.5,-144 509.5,-144 515.5,-150 515.5,-156 515.5,-156 515.5,-168 515.5,-168 515.5,-174 509.5,-180 503.5,-180"/>
<text text-anchor="middle" x="483" y="-159.5" font-family="sans" font-size="10.00">fix_motifs</text>
</g>
<!-- 10&#45;&gt;11 -->
<g id="edge25" class="edge"><title>10&#45;&gt;11</title>
<path fill="none" stroke="grey" stroke-width="2" d="M480.742,-215.697C481.072,-207.983 481.469,-198.712 481.838,-190.112"/>
<polygon fill="grey" stroke="grey" stroke-width="2" points="485.335,-190.245 482.267,-180.104 478.342,-189.945 485.335,-190.245"/>
</g>
<!-- 10&#45;&gt;13 -->
<g id="edge29" class="edge"><title>10&#45;&gt;13</title>
<path fill="none" stroke="grey" stroke-width="2" d="M445.393,-218.666C419.477,-207.931 383.808,-193.157 355.729,-181.527"/>
<polygon fill="grey" stroke="grey" stroke-width="2" points="356.72,-178.149 346.142,-177.556 354.041,-184.616 356.72,-178.149"/>
</g>
<!-- 11&#45;&gt;0 -->
<g id="edge10" class="edge"><title>11&#45;&gt;0</title>
<path fill="none" stroke="grey" stroke-width="2" d="M502.991,-143.84C522.429,-125.068 546.636,-94.6403 529,-72 507.943,-44.9684 410.431,-29.5633 355.998,-22.931"/>
<polygon fill="grey" stroke="grey" stroke-width="2" points="356.383,-19.4522 346.042,-21.7572 355.564,-26.4041 356.383,-19.4522"/>
</g>
<!-- 15 -->
<g id="node16" class="node"><title>15</title>
<path fill="none" stroke="#d8a456" stroke-width="2" d="M508,-108C508,-108 458,-108 458,-108 452,-108 446,-102 446,-96 446,-96 446,-84 446,-84 446,-78 452,-72 458,-72 458,-72 508,-72 508,-72 514,-72 520,-78 520,-84 520,-84 520,-96 520,-96 520,-102 514,-108 508,-108"/>
<text text-anchor="middle" x="483" y="-87.5" font-family="sans" font-size="10.00">chip_screen</text>
</g>
<!-- 11&#45;&gt;15 -->
<g id="edge31" class="edge"><title>11&#45;&gt;15</title>
<path fill="none" stroke="grey" stroke-width="2" d="M483,-143.697C483,-135.983 483,-126.712 483,-118.112"/>
<polygon fill="grey" stroke="grey" stroke-width="2" points="486.5,-118.104 483,-108.104 479.5,-118.104 486.5,-118.104"/>
</g>
<!-- 12&#45;&gt;0 -->
<g id="edge5" class="edge"><title>12&#45;&gt;0</title>
<path fill="none" stroke="grey" stroke-width="2" d="M380.776,-215.802C381.521,-185.516 380.289,-121.216 360,-72 355.877,-61.9976 349.338,-52.268 342.684,-43.9331"/>
<polygon fill="grey" stroke="grey" stroke-width="2" points="345.2,-41.4885 336.076,-36.1045 339.851,-46.0037 345.2,-41.4885"/>
</g>
<!-- 13&#45;&gt;0 -->
<g id="edge13" class="edge"><title>13&#45;&gt;0</title>
<path fill="none" stroke="grey" stroke-width="2" d="M296.245,-143.634C288.91,-133.849 280.814,-121.008 277,-108 272.499,-92.6463 271.739,-87.1102 277,-72 280.532,-61.855 286.905,-52.1914 293.637,-43.961"/>
<polygon fill="grey" stroke="grey" stroke-width="2" points="296.44,-46.0723 300.396,-36.2436 291.174,-41.4602 296.44,-46.0723"/>
</g>
<!-- 14 -->
<g id="node15" class="node"><title>14</title>
<path fill="none" stroke="#70d856" stroke-width="2" d="M339.5,-108C339.5,-108 298.5,-108 298.5,-108 292.5,-108 286.5,-102 286.5,-96 286.5,-96 286.5,-84 286.5,-84 286.5,-78 292.5,-72 298.5,-72 298.5,-72 339.5,-72 339.5,-72 345.5,-72 351.5,-78 351.5,-84 351.5,-84 351.5,-96 351.5,-96 351.5,-102 345.5,-108 339.5,-108"/>
<text text-anchor="middle" x="319" y="-87.5" font-family="sans" font-size="10.00">sort_stats</text>
</g>
<!-- 13&#45;&gt;14 -->
<g id="edge30" class="edge"><title>13&#45;&gt;14</title>
<path fill="none" stroke="grey" stroke-width="2" d="M312.978,-143.697C313.859,-135.983 314.919,-126.712 315.901,-118.112"/>
<polygon fill="grey" stroke="grey" stroke-width="2" points="319.387,-118.437 317.045,-108.104 312.432,-117.642 319.387,-118.437"/>
</g>
<!-- 14&#45;&gt;0 -->
<g id="edge7" class="edge"><title>14&#45;&gt;0</title>
<path fill="none" stroke="grey" stroke-width="2" d="M319,-71.6966C319,-63.9827 319,-54.7125 319,-46.1124"/>
<polygon fill="grey" stroke="grey" stroke-width="2" points="322.5,-46.1043 319,-36.1043 315.5,-46.1044 322.5,-46.1043"/>
</g>
<!-- 15&#45;&gt;0 -->
<g id="edge6" class="edge"><title>15&#45;&gt;0</title>
<path fill="none" stroke="grey" stroke-width="2" d="M445.786,-73.1159C418.768,-61.5837 382.392,-46.0575 355.533,-34.5932"/>
<polygon fill="grey" stroke="grey" stroke-width="2" points="356.674,-31.2749 346.103,-30.5683 353.926,-37.713 356.674,-31.2749"/>
</g>
<!-- 16 -->
<g id="node17" class="node"><title>16</title>
<path fill="none" stroke="#61d856" stroke-width="2" d="M250,-1188C250,-1188 176,-1188 176,-1188 170,-1188 164,-1182 164,-1176 164,-1176 164,-1164 164,-1164 164,-1158 170,-1152 176,-1152 176,-1152 250,-1152 250,-1152 256,-1152 262,-1158 262,-1164 262,-1164 262,-1176 262,-1176 262,-1182 256,-1188 250,-1188"/>
<text text-anchor="middle" x="213" y="-1167.5" font-family="sans" font-size="10.00">fragment_length</text>
</g>
<!-- 16&#45;&gt;4 -->
<g id="edge18" class="edge"><title>16&#45;&gt;4</title>
<path fill="none" stroke="grey" stroke-width="2" d="M212.047,-1151.97C209.38,-1104.29 201.822,-969.185 198.546,-910.63"/>
<polygon fill="grey" stroke="grey" stroke-width="2" points="202.021,-910.095 197.968,-900.306 195.032,-910.486 202.021,-910.095"/>
</g>
<!-- 17 -->
<g id="node18" class="node"><title>17</title>
<path fill="none" stroke="#d86656" stroke-width="2" d="M368,-828C368,-828 310,-828 310,-828 304,-828 298,-822 298,-816 298,-816 298,-804 298,-804 298,-798 304,-792 310,-792 310,-792 368,-792 368,-792 374,-792 380,-798 380,-804 380,-804 380,-816 380,-816 380,-822 374,-828 368,-828"/>
<text text-anchor="middle" x="339" y="-807.5" font-family="sans" font-size="10.00">remove_mito</text>
</g>
<!-- 17&#45;&gt;5 -->
<g id="edge19" class="edge"><title>17&#45;&gt;5</title>
<path fill="none" stroke="grey" stroke-width="2" d="M343.944,-791.697C346.172,-783.898 348.855,-774.509 351.335,-765.829"/>
<polygon fill="grey" stroke="grey" stroke-width="2" points="354.731,-766.681 354.113,-756.104 348,-764.758 354.731,-766.681"/>
</g>
<!-- 18&#45;&gt;8 -->
<g id="edge22" class="edge"><title>18&#45;&gt;8</title>
<path fill="none" stroke="grey" stroke-width="2" d="M510.146,-575.697C514.403,-567.644 519.556,-557.894 524.266,-548.982"/>
<polygon fill="grey" stroke="grey" stroke-width="2" points="527.38,-550.581 528.959,-540.104 521.192,-547.31 527.38,-550.581"/>
</g>
<!-- 19&#45;&gt;10 -->
<g id="edge24" class="edge"><title>19&#45;&gt;10</title>
<path fill="none" stroke="grey" stroke-width="2" d="M460.427,-287.697C463.355,-279.813 466.887,-270.304 470.14,-261.546"/>
<polygon fill="grey" stroke="grey" stroke-width="2" points="473.446,-262.697 473.647,-252.104 466.884,-260.26 473.446,-262.697"/>
</g>
<!-- 19&#45;&gt;12 -->
<g id="edge26" class="edge"><title>19&#45;&gt;12</title>
<path fill="none" stroke="grey" stroke-width="2" d="M435.708,-287.697C426.567,-279.05 415.36,-268.449 405.4,-259.027"/>
<polygon fill="grey" stroke="grey" stroke-width="2" points="407.752,-256.434 398.082,-252.104 402.941,-261.519 407.752,-256.434"/>
</g>
<!-- 20&#45;&gt;16 -->
<g id="edge32" class="edge"><title>20&#45;&gt;16</title>
<path fill="none" stroke="grey" stroke-width="2" d="M213,-1223.7C213,-1215.98 213,-1206.71 213,-1198.11"/>
<polygon fill="grey" stroke="grey" stroke-width="2" points="216.5,-1198.1 213,-1188.1 209.5,-1198.1 216.5,-1198.1"/>
</g>
<!-- 26 -->
<g id="node27" class="node"><title>26</title>
<path fill="none" stroke="#56d873" stroke-width="2" d="M343,-1188C343,-1188 293,-1188 293,-1188 287,-1188 281,-1182 281,-1176 281,-1176 281,-1164 281,-1164 281,-1158 287,-1152 293,-1152 293,-1152 343,-1152 343,-1152 349,-1152 355,-1158 355,-1164 355,-1164 355,-1176 355,-1176 355,-1182 349,-1188 343,-1188"/>
<text text-anchor="middle" x="318" y="-1167.5" font-family="sans" font-size="10.00">sort_bams1</text>
</g>
<!-- 20&#45;&gt;26 -->
<g id="edge43" class="edge"><title>20&#45;&gt;26</title>
<path fill="none" stroke="grey" stroke-width="2" d="M238.686,-1223.88C252.288,-1214.81 269.172,-1203.55 283.861,-1193.76"/>
<polygon fill="grey" stroke="grey" stroke-width="2" points="285.836,-1196.65 292.215,-1188.19 281.953,-1190.82 285.836,-1196.65"/>
</g>
<!-- 21 -->
<g id="node22" class="node"><title>21</title>
<path fill="none" stroke="#56d8d0" stroke-width="2" d="M364.5,-900C364.5,-900 293.5,-900 293.5,-900 287.5,-900 281.5,-894 281.5,-888 281.5,-888 281.5,-876 281.5,-876 281.5,-870 287.5,-864 293.5,-864 293.5,-864 364.5,-864 364.5,-864 370.5,-864 376.5,-870 376.5,-876 376.5,-876 376.5,-888 376.5,-888 376.5,-894 370.5,-900 364.5,-900"/>
<text text-anchor="middle" x="329" y="-879.5" font-family="sans" font-size="10.00">dedup_markdup</text>
</g>
<!-- 21&#45;&gt;17 -->
<g id="edge33" class="edge"><title>21&#45;&gt;17</title>
<path fill="none" stroke="grey" stroke-width="2" d="M331.472,-863.697C332.574,-855.983 333.898,-846.712 335.127,-838.112"/>
<polygon fill="grey" stroke="grey" stroke-width="2" points="338.607,-838.499 336.557,-828.104 331.677,-837.509 338.607,-838.499"/>
</g>
<!-- 22&#45;&gt;19 -->
<g id="edge35" class="edge"><title>22&#45;&gt;19</title>
<path fill="none" stroke="grey" stroke-width="2" d="M490.135,-359.697C484.497,-351.474 477.646,-341.483 471.431,-332.421"/>
<polygon fill="grey" stroke="grey" stroke-width="2" points="474.271,-330.372 465.729,-324.104 468.497,-334.331 474.271,-330.372"/>
</g>
<!-- 23 -->
<g id="node24" class="node"><title>23</title>
<path fill="none" stroke="#567bd8" stroke-width="2" d="M348,-972C348,-972 298,-972 298,-972 292,-972 286,-966 286,-960 286,-960 286,-948 286,-948 286,-942 292,-936 298,-936 298,-936 348,-936 348,-936 354,-936 360,-942 360,-948 360,-948 360,-960 360,-960 360,-966 354,-972 348,-972"/>
<text text-anchor="middle" x="323" y="-951.5" font-family="sans" font-size="10.00">sort_bams2</text>
</g>
<!-- 23&#45;&gt;21 -->
<g id="edge38" class="edge"><title>23&#45;&gt;21</title>
<path fill="none" stroke="grey" stroke-width="2" d="M324.483,-935.697C325.144,-927.983 325.939,-918.712 326.676,-910.112"/>
<polygon fill="grey" stroke="grey" stroke-width="2" points="330.167,-910.367 327.534,-900.104 323.193,-909.769 330.167,-910.367"/>
</g>
<!-- 24 -->
<g id="node25" class="node"><title>24</title>
<path fill="none" stroke="#5692d8" stroke-width="2" d="M354.5,-1044C354.5,-1044 289.5,-1044 289.5,-1044 283.5,-1044 277.5,-1038 277.5,-1032 277.5,-1032 277.5,-1020 277.5,-1020 277.5,-1014 283.5,-1008 289.5,-1008 289.5,-1008 354.5,-1008 354.5,-1008 360.5,-1008 366.5,-1014 366.5,-1020 366.5,-1020 366.5,-1032 366.5,-1032 366.5,-1038 360.5,-1044 354.5,-1044"/>
<text text-anchor="middle" x="322" y="-1023.5" font-family="sans" font-size="10.00">dedup_fixmate</text>
</g>
<!-- 24&#45;&gt;23 -->
<g id="edge40" class="edge"><title>24&#45;&gt;23</title>
<path fill="none" stroke="grey" stroke-width="2" d="M322.247,-1007.7C322.357,-999.983 322.49,-990.712 322.613,-982.112"/>
<polygon fill="grey" stroke="grey" stroke-width="2" points="326.112,-982.153 322.756,-972.104 319.113,-982.053 326.112,-982.153"/>
</g>
<!-- 25 -->
<g id="node26" class="node"><title>25</title>
<path fill="none" stroke="#56d89a" stroke-width="2" d="M349.5,-1116C349.5,-1116 288.5,-1116 288.5,-1116 282.5,-1116 276.5,-1110 276.5,-1104 276.5,-1104 276.5,-1092 276.5,-1092 276.5,-1086 282.5,-1080 288.5,-1080 288.5,-1080 349.5,-1080 349.5,-1080 355.5,-1080 361.5,-1086 361.5,-1092 361.5,-1092 361.5,-1104 361.5,-1104 361.5,-1110 355.5,-1116 349.5,-1116"/>
<text text-anchor="middle" x="319" y="-1095.5" font-family="sans" font-size="10.00">dedup_collate</text>
</g>
<!-- 25&#45;&gt;24 -->
<g id="edge41" class="edge"><title>25&#45;&gt;24</title>
<path fill="none" stroke="grey" stroke-width="2" d="M319.742,-1079.7C320.072,-1071.98 320.469,-1062.71 320.838,-1054.11"/>
<polygon fill="grey" stroke="grey" stroke-width="2" points="324.335,-1054.25 321.267,-1044.1 317.342,-1053.95 324.335,-1054.25"/>
</g>
<!-- 26&#45;&gt;25 -->
<g id="edge42" class="edge"><title>26&#45;&gt;25</title>
<path fill="none" stroke="grey" stroke-width="2" d="M318.247,-1151.7C318.357,-1143.98 318.49,-1134.71 318.613,-1126.11"/>
<polygon fill="grey" stroke="grey" stroke-width="2" points="322.112,-1126.15 318.756,-1116.1 315.113,-1126.05 322.112,-1126.15"/>
</g>
</g>
</svg>
